<?xml version="1.0" standalone="no"?>
<!DOCTYPE svg PUBLIC "-//W3C//DTD SVG 20010904//EN"
 "http://www.w3.org/TR/2001/REC-SVG-20010904/DTD/svg10.dtd">
<svg version="1.0" xmlns="http://www.w3.org/2000/svg"
 width="640.000000pt" height="640.000000pt" viewBox="0 0 640.000000 640.000000"
 preserveAspectRatio="xMidYMid meet">
<metadata>
Created by potrace 1.14, written by Peter Selinger 2001-2017
</metadata>
<g transform="translate(0.000000,640.000000) scale(0.100000,-0.100000)"
fill="#000000" stroke="none">
<path d="M3951 5174 c-164 -28 -355 -102 -509 -196 -371 -226 -645 -634 -723
-1077 -29 -159 -29 -400 0 -561 57 -328 211 -621 450 -860 276 -276 588 -418
954 -437 468 -23 886 174 1248 590 l59 68 0 559 0 560 -575 0 -575 0 0 -275 0
-275 280 0 280 0 -2 -167 -3 -168 -80 -57 c-387 -276 -853 -245 -1154 78 -183
196 -270 436 -258 709 7 151 34 260 97 390 109 224 283 378 515 457 76 26 110
32 215 36 256 9 427 -49 634 -216 43 -35 79 -62 80 -60 1 2 84 103 184 225
100 122 182 225 182 230 0 16 -115 121 -210 193 -151 112 -348 202 -540 245
-107 24 -435 29 -549 9z"/>
<path d="M1300 4472 l0 -237 -152 -66 -153 -65 0 -199 0 -200 152 -3 152 -3 3
-577 c4 -566 5 -578 27 -652 72 -238 230 -387 466 -436 160 -34 371 -21 593
37 l82 22 0 249 c0 136 -4 248 -9 248 -5 0 -28 -7 -52 -17 -32 -12 -78 -16
-169 -17 -108 -1 -131 2 -172 21 -66 31 -122 85 -149 146 -24 52 -24 52 -27
515 l-3 462 291 0 290 0 0 268 0 267 -287 0 -288 0 -3 238 -2 237 -295 0 -295
0 0 -238z"/>
</g>
</svg>
